<?xml version="1.0" encoding="UTF-8"?>
<svg width="100px" height="100px" viewBox="0 0 66 100" version="1.1" xmlns="http://www.w3.org/2000/svg" xmlns:xlink="http://www.w3.org/1999/xlink">
    <g stroke="none" stroke-width="1" fill="none" fill-rule="evenodd">
        <g transform="translate(-155.000000, -234.000000)" fill="#FF6B00" fill-rule="nonzero">
            <path d="M188,334 L156.535408,317.035385 C154.699973,316.135747 154.437768,313.56535 156.1421,312.280152 L182.362594,295.444057 L165.974786,314.593509 C165.974786,314.593509 165.712581,314.850548 165.712581,315.107588 C165.712581,315.364628 166.105888,315.621667 166.105888,315.621667 L188,334 Z M179.347237,262.542986 C182.493696,271.667893 182.362594,295.315538 182.362594,295.315538 C182.362594,295.315538 165.319273,275.523487 162.435019,267.426739 C159.681867,260.10111 160.075174,238.124223 160.075174,234.268628 C160.075174,234.011589 160.337379,233.883069 160.468482,234.140108 C162.959429,237.224584 176.33188,253.803639 179.347237,262.542986 Z M188,334 L209.894112,315.621667 C209.894112,315.621667 210.287419,315.364628 210.287419,315.107588 C210.287419,314.850548 210.025214,314.593509 210.025214,314.593509 L193.637406,295.444057 L219.8579,312.280152 C221.562232,313.56535 221.300027,316.135747 219.464592,317.035385 L188,334 Z M196.652763,262.542986 C199.66812,253.803639 213.040571,237.224584 215.531518,234.140108 C215.662621,233.883069 215.924826,234.011589 215.924826,234.268628 C215.924826,238.124223 216.318133,260.10111 213.564981,267.426739 C210.680727,275.523487 193.637406,295.315538 193.637406,295.315538 C193.637406,295.315538 193.506304,271.667893 196.652763,262.542986 Z"></path>
        </g>
    </g>
</svg>